<?xml version='1.0' encoding='UTF-8'?>
<svg width="65mm" height="65mm" version="1.1" viewBox="0 0 65 65" xmlns="http://www.w3.org/2000/svg"><path d="M4,4H5V5H4zM5,4H6V5H5zM6,4H7V5H6zM7,4H8V5H7zM8,4H9V5H8zM9,4H10V5H9zM10,4H11V5H10zM13,4H14V5H13zM14,4H15V5H14zM20,4H21V5H20zM21,4H22V5H21zM26,4H27V5H26zM27,4H28V5H27zM28,4H29V5H28zM30,4H31V5H30zM32,4H33V5H32zM33,4H34V5H33zM35,4H36V5H35zM38,4H39V5H38zM39,4H40V5H39zM40,4H41V5H40zM42,4H43V5H42zM43,4H44V5H43zM45,4H46V5H45zM46,4H47V5H46zM50,4H51V5H50zM51,4H52V5H51zM54,4H55V5H54zM55,4H56V5H55zM56,4H57V5H56zM57,4H58V5H57zM58,4H59V5H58zM59,4H60V5H59zM60,4H61V5H60zM4,5H5V6H4zM10,5H11V6H10zM13,5H14V6H13zM14,5H15V6H14zM19,5H20V6H19zM22,5H23V6H22zM24,5H25V6H24zM28,5H29V6H28zM29,5H30V6H29zM31,5H32V6H31zM33,5H34V6H33zM34,5H35V6H34zM36,5H37V6H36zM37,5H38V6H37zM38,5H39V6H38zM39,5H40V6H39zM40,5H41V6H40zM41,5H42V6H41zM43,5H44V6H43zM47,5H48V6H47zM48,5H49V6H48zM51,5H52V6H51zM54,5H55V6H54zM60,5H61V6H60zM4,6H5V7H4zM6,6H7V7H6zM7,6H8V7H7zM8,6H9V7H8zM10,6H11V7H10zM12,6H13V7H12zM14,6H15V7H14zM17,6H18V7H17zM18,6H19V7H18zM19,6H20V7H19zM20,6H21V7H20zM21,6H22V7H21zM23,6H24V7H23zM26,6H27V7H26zM27,6H28V7H27zM29,6H30V7H29zM30,6H31V7H30zM33,6H34V7H33zM34,6H35V7H34zM36,6H37V7H36zM37,6H38V7H37zM40,6H41V7H40zM41,6H42V7H41zM42,6H43V7H42zM45,6H46V7H45zM47,6H48V7H47zM48,6H49V7H48zM49,6H50V7H49zM50,6H51V7H50zM51,6H52V7H51zM54,6H55V7H54zM56,6H57V7H56zM57,6H58V7H57zM58,6H59V7H58zM60,6H61V7H60zM4,7H5V8H4zM6,7H7V8H6zM7,7H8V8H7zM8,7H9V8H8zM10,7H11V8H10zM12,7H13V8H12zM16,7H17V8H16zM17,7H18V8H17zM18,7H19V8H18zM21,7H22V8H21zM23,7H24V8H23zM24,7H25V8H24zM27,7H28V8H27zM29,7H30V8H29zM32,7H33V8H32zM35,7H36V8H35zM36,7H37V8H36zM39,7H40V8H39zM41,7H42V8H41zM42,7H43V8H42zM43,7H44V8H43zM44,7H45V8H44zM47,7H48V8H47zM48,7H49V8H48zM51,7H52V8H51zM54,7H55V8H54zM56,7H57V8H56zM57,7H58V8H57zM58,7H59V8H58zM60,7H61V8H60zM4,8H5V9H4zM6,8H7V9H6zM7,8H8V9H7zM8,8H9V9H8zM10,8H11V9H10zM13,8H14V9H13zM17,8H18V9H17zM18,8H19V9H18zM20,8H21V9H20zM24,8H25V9H24zM26,8H27V9H26zM27,8H28V9H27zM30,8H31V9H30zM31,8H32V9H31zM32,8H33V9H32zM33,8H34V9H33zM34,8H35V9H34zM35,8H36V9H35zM36,8H37V9H36zM37,8H38V9H37zM38,8H39V9H38zM39,8H40V9H39zM40,8H41V9H40zM42,8H43V9H42zM44,8H45V9H44zM46,8H47V9H46zM47,8H48V9H47zM51,8H52V9H51zM54,8H55V9H54zM56,8H57V9H56zM57,8H58V9H57zM58,8H59V9H58zM60,8H61V9H60zM4,9H5V10H4zM10,9H11V10H10zM15,9H16V10H15zM17,9H18V10H17zM18,9H19V10H18zM19,9H20V10H19zM23,9H24V10H23zM26,9H27V10H26zM27,9H28V10H27zM28,9H29V10H28zM29,9H30V10H29zM30,9H31V10H30zM34,9H35V10H34zM35,9H36V10H35zM36,9H37V10H36zM42,9H43V10H42zM43,9H44V10H43zM44,9H45V10H44zM45,9H46V10H45zM47,9H48V10H47zM48,9H49V10H48zM49,9H50V10H49zM50,9H51V10H50zM54,9H55V10H54zM60,9H61V10H60zM4,10H5V11H4zM5,10H6V11H5zM6,10H7V11H6zM7,10H8V11H7zM8,10H9V11H8zM9,10H10V11H9zM10,10H11V11H10zM12,10H13V11H12zM14,10H15V11H14zM16,10H17V11H16zM18,10H19V11H18zM20,10H21V11H20zM22,10H23V11H22zM24,10H25V11H24zM26,10H27V11H26zM28,10H29V11H28zM30,10H31V11H30zM32,10H33V11H32zM34,10H35V11H34zM36,10H37V11H36zM38,10H39V11H38zM40,10H41V11H40zM42,10H43V11H42zM44,10H45V11H44zM46,10H47V11H46zM48,10H49V11H48zM50,10H51V11H50zM52,10H53V11H52zM54,10H55V11H54zM55,10H56V11H55zM56,10H57V11H56zM57,10H58V11H57zM58,10H59V11H58zM59,10H60V11H59zM60,10H61V11H60zM13,11H14V12H13zM17,11H18V12H17zM19,11H20V12H19zM22,11H23V12H22zM23,11H24V12H23zM24,11H25V12H24zM25,11H26V12H25zM26,11H27V12H26zM29,11H30V12H29zM30,11H31V12H30zM34,11H35V12H34zM36,11H37V12H36zM44,11H45V12H44zM45,11H46V12H45zM46,11H47V12H46zM47,11H48V12H47zM48,11H49V12H48zM49,11H50V12H49zM50,11H51V12H50zM52,11H53V12H52zM7,12H8V13H7zM8,12H9V13H8zM10,12H11V13H10zM11,12H12V13H11zM13,12H14V13H13zM15,12H16V13H15zM16,12H17V13H16zM17,12H18V13H17zM20,12H21V13H20zM22,12H23V13H22zM23,12H24V13H23zM24,12H25V13H24zM28,12H29V13H28zM29,12H30V13H29zM30,12H31V13H30zM31,12H32V13H31zM32,12H33V13H32zM33,12H34V13H33zM34,12H35V13H34zM37,12H38V13H37zM40,12H41V13H40zM41,12H42V13H41zM42,12H43V13H42zM44,12H45V13H44zM46,12H47V13H46zM48,12H49V13H48zM50,12H51V13H50zM57,12H58V13H57zM58,12H59V13H58zM5,13H6V14H5zM6,13H7V14H6zM7,13H8V14H7zM9,13H10V14H9zM12,13H13V14H12zM13,13H14V14H13zM14,13H15V14H14zM15,13H16V14H15zM17,13H18V14H17zM20,13H21V14H20zM21,13H22V14H21zM22,13H23V14H22zM23,13H24V14H23zM27,13H28V14H27zM29,13H30V14H29zM31,13H32V14H31zM32,13H33V14H32zM33,13H34V14H33zM34,13H35V14H34zM36,13H37V14H36zM37,13H38V14H37zM41,13H42V14H41zM43,13H44V14H43zM45,13H46V14H45zM46,13H47V14H46zM49,13H50V14H49zM50,13H51V14H50zM52,13H53V14H52zM54,13H55V14H54zM56,13H57V14H56zM57,13H58V14H57zM58,13H59V14H58zM4,14H5V15H4zM6,14H7V15H6zM9,14H10V15H9zM10,14H11V15H10zM11,14H12V15H11zM12,14H13V15H12zM13,14H14V15H13zM15,14H16V15H15zM20,14H21V15H20zM21,14H22V15H21zM26,14H27V15H26zM27,14H28V15H27zM28,14H29V15H28zM29,14H30V15H29zM33,14H34V15H33zM36,14H37V15H36zM37,14H38V15H37zM39,14H40V15H39zM40,14H41V15H40zM42,14H43V15H42zM44,14H45V15H44zM45,14H46V15H45zM47,14H48V15H47zM49,14H50V15H49zM51,14H52V15H51zM52,14H53V15H52zM57,14H58V15H57zM58,14H59V15H58zM59,14H60V15H59zM60,14H61V15H60zM5,15H6V16H5zM6,15H7V16H6zM7,15H8V16H7zM9,15H10V16H9zM11,15H12V16H11zM13,15H14V16H13zM23,15H24V16H23zM24,15H25V16H24zM26,15H27V16H26zM27,15H28V16H27zM30,15H31V16H30zM33,15H34V16H33zM34,15H35V16H34zM36,15H37V16H36zM37,15H38V16H37zM38,15H39V16H38zM40,15H41V16H40zM42,15H43V16H42zM47,15H48V16H47zM48,15H49V16H48zM50,15H51V16H50zM53,15H54V16H53zM55,15H56V16H55zM58,15H59V16H58zM4,16H5V17H4zM6,16H7V17H6zM7,16H8V17H7zM10,16H11V17H10zM11,16H12V17H11zM13,16H14V17H13zM14,16H15V17H14zM15,16H16V17H15zM16,16H17V17H16zM18,16H19V17H18zM23,16H24V17H23zM24,16H25V17H24zM25,16H26V17H25zM29,16H30V17H29zM30,16H31V17H30zM31,16H32V17H31zM33,16H34V17H33zM34,16H35V17H34zM35,16H36V17H35zM38,16H39V17H38zM39,16H40V17H39zM41,16H42V17H41zM42,16H43V17H42zM43,16H44V17H43zM44,16H45V17H44zM46,16H47V17H46zM47,16H48V17H47zM48,16H49V17H48zM51,16H52V17H51zM53,16H54V17H53zM56,16H57V17H56zM57,16H58V17H57zM59,16H60V17H59zM60,16H61V17H60zM5,17H6V18H5zM8,17H9V18H8zM9,17H10V18H9zM11,17H12V18H11zM16,17H17V18H16zM18,17H19V18H18zM19,17H20V18H19zM22,17H23V18H22zM24,17H25V18H24zM25,17H26V18H25zM26,17H27V18H26zM30,17H31V18H30zM32,17H33V18H32zM33,17H34V18H33zM36,17H37V18H36zM38,17H39V18H38zM39,17H40V18H39zM40,17H41V18H40zM42,17H43V18H42zM45,17H46V18H45zM46,17H47V18H46zM47,17H48V18H47zM51,17H52V18H51zM52,17H53V18H52zM54,17H55V18H54zM57,17H58V18H57zM58,17H59V18H58zM4,18H5V19H4zM7,18H8V19H7zM8,18H9V19H8zM9,18H10V19H9zM10,18H11V19H10zM12,18H13V19H12zM17,18H18V19H17zM20,18H21V19H20zM22,18H23V19H22zM24,18H25V19H24zM27,18H28V19H27zM28,18H29V19H28zM29,18H30V19H29zM30,18H31V19H30zM35,18H36V19H35zM39,18H40V19H39zM41,18H42V19H41zM42,18H43V19H42zM43,18H44V19H43zM44,18H45V19H44zM45,18H46V19H45zM51,18H52V19H51zM52,18H53V19H52zM53,18H54V19H53zM54,18H55V19H54zM56,18H57V19H56zM58,18H59V19H58zM4,19H5V20H4zM6,19H7V20H6zM8,19H9V20H8zM21,19H22V20H21zM22,19H23V20H22zM23,19H24V20H23zM25,19H26V20H25zM29,19H30V20H29zM30,19H31V20H30zM32,19H33V20H32zM33,19H34V20H33zM34,19H35V20H34zM36,19H37V20H36zM38,19H39V20H38zM41,19H42V20H41zM42,19H43V20H42zM43,19H44V20H43zM46,19H47V20H46zM47,19H48V20H47zM49,19H50V20H49zM50,19H51V20H50zM51,19H52V20H51zM52,19H53V20H52zM54,19H55V20H54zM55,19H56V20H55zM57,19H58V20H57zM58,19H59V20H58zM60,19H61V20H60zM4,20H5V21H4zM7,20H8V21H7zM8,20H9V21H8zM9,20H10V21H9zM10,20H11V21H10zM15,20H16V21H15zM18,20H19V21H18zM20,20H21V21H20zM21,20H22V21H21zM22,20H23V21H22zM23,20H24V21H23zM24,20H25V21H24zM28,20H29V21H28zM32,20H33V21H32zM33,20H34V21H33zM35,20H36V21H35zM37,20H38V21H37zM38,20H39V21H38zM39,20H40V21H39zM42,20H43V21H42zM45,20H46V21H45zM47,20H48V21H47zM48,20H49V21H48zM51,20H52V21H51zM53,20H54V21H53zM54,20H55V21H54zM57,20H58V21H57zM59,20H60V21H59zM5,21H6V22H5zM6,21H7V22H6zM7,21H8V22H7zM9,21H10V22H9zM12,21H13V22H12zM13,21H14V22H13zM14,21H15V22H14zM15,21H16V22H15zM17,21H18V22H17zM18,21H19V22H18zM19,21H20V22H19zM20,21H21V22H20zM22,21H23V22H22zM23,21H24V22H23zM25,21H26V22H25zM26,21H27V22H26zM27,21H28V22H27zM28,21H29V22H28zM29,21H30V22H29zM31,21H32V22H31zM34,21H35V22H34zM36,21H37V22H36zM40,21H41V22H40zM41,21H42V22H41zM43,21H44V22H43zM46,21H47V22H46zM47,21H48V22H47zM48,21H49V22H48zM49,21H50V22H49zM50,21H51V22H50zM52,21H53V22H52zM53,21H54V22H53zM55,21H56V22H55zM56,21H57V22H56zM57,21H58V22H57zM58,21H59V22H58zM60,21H61V22H60zM4,22H5V23H4zM5,22H6V23H5zM7,22H8V23H7zM9,22H10V23H9zM10,22H11V23H10zM11,22H12V23H11zM15,22H16V23H15zM18,22H19V23H18zM19,22H20V23H19zM21,22H22V23H21zM23,22H24V23H23zM25,22H26V23H25zM26,22H27V23H26zM27,22H28V23H27zM28,22H29V23H28zM30,22H31V23H30zM31,22H32V23H31zM32,22H33V23H32zM33,22H34V23H33zM35,22H36V23H35zM36,22H37V23H36zM41,22H42V23H41zM45,22H46V23H45zM49,22H50V23H49zM52,22H53V23H52zM60,22H61V23H60zM4,23H5V24H4zM5,23H6V24H5zM6,23H7V24H6zM8,23H9V24H8zM9,23H10V24H9zM11,23H12V24H11zM14,23H15V24H14zM15,23H16V24H15zM18,23H19V24H18zM19,23H20V24H19zM20,23H21V24H20zM21,23H22V24H21zM26,23H27V24H26zM29,23H30V24H29zM32,23H33V24H32zM33,23H34V24H33zM34,23H35V24H34zM36,23H37V24H36zM39,23H40V24H39zM44,23H45V24H44zM46,23H47V24H46zM47,23H48V24H47zM56,23H57V24H56zM57,23H58V24H57zM58,23H59V24H58zM4,24H5V25H4zM5,24H6V25H5zM10,24H11V25H10zM11,24H12V25H11zM12,24H13V25H12zM13,24H14V25H13zM14,24H15V25H14zM17,24H18V25H17zM19,24H20V25H19zM21,24H22V25H21zM22,24H23V25H22zM23,24H24V25H23zM24,24H25V25H24zM27,24H28V25H27zM30,24H31V25H30zM31,24H32V25H31zM32,24H33V25H32zM38,24H39V25H38zM39,24H40V25H39zM40,24H41V25H40zM42,24H43V25H42zM44,24H45V25H44zM46,24H47V25H46zM47,24H48V25H47zM56,24H57V25H56zM60,24H61V25H60zM4,25H5V26H4zM7,25H8V26H7zM8,25H9V26H8zM14,25H15V26H14zM15,25H16V26H15zM21,25H22V26H21zM26,25H27V26H26zM28,25H29V26H28zM29,25H30V26H29zM35,25H36V26H35zM36,25H37V26H36zM39,25H40V26H39zM41,25H42V26H41zM42,25H43V26H42zM43,25H44V26H43zM46,25H47V26H46zM47,25H48V26H47zM49,25H50V26H49zM50,25H51V26H50zM51,25H52V26H51zM52,25H53V26H52zM53,25H54V26H53zM54,25H55V26H54zM55,25H56V26H55zM57,25H58V26H57zM59,25H60V26H59zM8,26H9V27H8zM9,26H10V27H9zM10,26H11V27H10zM12,26H13V27H12zM13,26H14V27H13zM15,26H16V27H15zM18,26H19V27H18zM19,26H20V27H19zM20,26H21V27H20zM21,26H22V27H21zM22,26H23V27H22zM23,26H24V27H23zM26,26H27V27H26zM29,26H30V27H29zM32,26H33V27H32zM34,26H35V27H34zM36,26H37V27H36zM37,26H38V27H37zM39,26H40V27H39zM43,26H44V27H43zM48,26H49V27H48zM49,26H50V27H49zM50,26H51V27H50zM51,26H52V27H51zM53,26H54V27H53zM56,26H57V27H56zM57,26H58V27H57zM59,26H60V27H59zM60,26H61V27H60zM4,27H5V28H4zM6,27H7V28H6zM8,27H9V28H8zM9,27H10V28H9zM12,27H13V28H12zM14,27H15V28H14zM15,27H16V28H15zM16,27H17V28H16zM19,27H20V28H19zM20,27H21V28H20zM21,27H22V28H21zM22,27H23V28H22zM23,27H24V28H23zM24,27H25V28H24zM26,27H27V28H26zM29,27H30V28H29zM32,27H33V28H32zM38,27H39V28H38zM39,27H40V28H39zM42,27H43V28H42zM43,27H44V28H43zM44,27H45V28H44zM45,27H46V28H45zM46,27H47V28H46zM47,27H48V28H47zM48,27H49V28H48zM49,27H50V28H49zM51,27H52V28H51zM52,27H53V28H52zM55,27H56V28H55zM58,27H59V28H58zM5,28H6V29H5zM9,28H10V29H9zM10,28H11V29H10zM11,28H12V29H11zM17,28H18V29H17zM20,28H21V29H20zM23,28H24V29H23zM24,28H25V29H24zM25,28H26V29H25zM26,28H27V29H26zM27,28H28V29H27zM32,28H33V29H32zM37,28H38V29H37zM40,28H41V29H40zM41,28H42V29H41zM42,28H43V29H42zM43,28H44V29H43zM44,28H45V29H44zM46,28H47V29H46zM48,28H49V29H48zM56,28H57V29H56zM57,28H58V29H57zM59,28H60V29H59zM60,28H61V29H60zM6,29H7V30H6zM11,29H12V30H11zM12,29H13V30H12zM13,29H14V30H13zM16,29H17V30H16zM17,29H18V30H17zM18,29H19V30H18zM22,29H23V30H22zM23,29H24V30H23zM26,29H27V30H26zM30,29H31V30H30zM32,29H33V30H32zM33,29H34V30H33zM34,29H35V30H34zM37,29H38V30H37zM40,29H41V30H40zM42,29H43V30H42zM43,29H44V30H43zM46,29H47V30H46zM47,29H48V30H47zM48,29H49V30H48zM51,29H52V30H51zM52,29H53V30H52zM54,29H55V30H54zM55,29H56V30H55zM58,29H59V30H58zM59,29H60V30H59zM4,30H5V31H4zM7,30H8V31H7zM8,30H9V31H8zM9,30H10V31H9zM10,30H11V31H10zM11,30H12V31H11zM12,30H13V31H12zM13,30H14V31H13zM14,30H15V31H14zM15,30H16V31H15zM17,30H18V31H17zM18,30H19V31H18zM19,30H20V31H19zM20,30H21V31H20zM21,30H22V31H21zM22,30H23V31H22zM23,30H24V31H23zM25,30H26V31H25zM28,30H29V31H28zM29,30H30V31H29zM30,30H31V31H30zM31,30H32V31H31zM32,30H33V31H32zM33,30H34V31H33zM34,30H35V31H34zM35,30H36V31H35zM36,30H37V31H36zM37,30H38V31H37zM39,30H40V31H39zM41,30H42V31H41zM42,30H43V31H42zM43,30H44V31H43zM44,30H45V31H44zM45,30H46V31H45zM46,30H47V31H46zM47,30H48V31H47zM48,30H49V31H48zM49,30H50V31H49zM51,30H52V31H51zM52,30H53V31H52zM53,30H54V31H53zM54,30H55V31H54zM55,30H56V31H55zM56,30H57V31H56zM58,30H59V31H58zM8,31H9V32H8zM12,31H13V32H12zM14,31H15V32H14zM15,31H16V32H15zM16,31H17V32H16zM18,31H19V32H18zM19,31H20V32H19zM24,31H25V32H24zM25,31H26V32H25zM26,31H27V32H26zM27,31H28V32H27zM30,31H31V32H30zM34,31H35V32H34zM35,31H36V32H35zM39,31H40V32H39zM41,31H42V32H41zM42,31H43V32H42zM43,31H44V32H43zM45,31H46V32H45zM46,31H47V32H46zM49,31H50V32H49zM50,31H51V32H50zM51,31H52V32H51zM52,31H53V32H52zM56,31H57V32H56zM57,31H58V32H57zM58,31H59V32H58zM59,31H60V32H59zM60,31H61V32H60zM6,32H7V33H6zM7,32H8V33H7zM8,32H9V33H8zM10,32H11V33H10zM12,32H13V33H12zM14,32H15V33H14zM15,32H16V33H15zM16,32H17V33H16zM21,32H22V33H21zM24,32H25V33H24zM25,32H26V33H25zM28,32H29V33H28zM29,32H30V33H29zM30,32H31V33H30zM32,32H33V33H32zM34,32H35V33H34zM37,32H38V33H37zM39,32H40V33H39zM40,32H41V33H40zM41,32H42V33H41zM42,32H43V33H42zM43,32H44V33H43zM45,32H46V33H45zM46,32H47V33H46zM48,32H49V33H48zM51,32H52V33H51zM52,32H53V33H52zM54,32H55V33H54zM56,32H57V33H56zM57,32H58V33H57zM60,32H61V33H60zM5,33H6V34H5zM7,33H8V34H7zM8,33H9V34H8zM12,33H13V34H12zM14,33H15V34H14zM19,33H20V34H19zM20,33H21V34H20zM24,33H25V34H24zM25,33H26V34H25zM26,33H27V34H26zM27,33H28V34H27zM28,33H29V34H28zM30,33H31V34H30zM34,33H35V34H34zM35,33H36V34H35zM36,33H37V34H36zM38,33H39V34H38zM39,33H40V34H39zM41,33H42V34H41zM46,33H47V34H46zM49,33H50V34H49zM50,33H51V34H50zM51,33H52V34H51zM52,33H53V34H52zM56,33H57V34H56zM57,33H58V34H57zM58,33H59V34H58zM59,33H60V34H59zM60,33H61V34H60zM5,34H6V35H5zM6,34H7V35H6zM8,34H9V35H8zM9,34H10V35H9zM10,34H11V35H10zM11,34H12V35H11zM12,34H13V35H12zM13,34H14V35H13zM14,34H15V35H14zM15,34H16V35H15zM17,34H18V35H17zM18,34H19V35H18zM19,34H20V35H19zM22,34H23V35H22zM24,34H25V35H24zM26,34H27V35H26zM27,34H28V35H27zM28,34H29V35H28zM29,34H30V35H29zM30,34H31V35H30zM31,34H32V35H31zM32,34H33V35H32zM33,34H34V35H33zM34,34H35V35H34zM35,34H36V35H35zM37,34H38V35H37zM41,34H42V35H41zM43,34H44V35H43zM44,34H45V35H44zM45,34H46V35H45zM49,34H50V35H49zM52,34H53V35H52zM53,34H54V35H53zM54,34H55V35H54zM55,34H56V35H55zM56,34H57V35H56zM58,34H59V35H58zM60,34H61V35H60zM4,35H5V36H4zM6,35H7V36H6zM12,35H13V36H12zM13,35H14V36H13zM15,35H16V36H15zM19,35H20V36H19zM20,35H21V36H20zM23,35H24V36H23zM25,35H26V36H25zM27,35H28V36H27zM35,35H36V36H35zM37,35H38V36H37zM38,35H39V36H38zM40,35H41V36H40zM42,35H43V36H42zM43,35H44V36H43zM44,35H45V36H44zM45,35H46V36H45zM49,35H50V36H49zM51,35H52V36H51zM53,35H54V36H53zM55,35H56V36H55zM56,35H57V36H56zM57,35H58V36H57zM58,35H59V36H58zM59,35H60V36H59zM5,36H6V37H5zM7,36H8V37H7zM8,36H9V37H8zM10,36H11V37H10zM11,36H12V37H11zM12,36H13V37H12zM15,36H16V37H15zM20,36H21V37H20zM22,36H23V37H22zM24,36H25V37H24zM25,36H26V37H25zM27,36H28V37H27zM29,36H30V37H29zM30,36H31V37H30zM33,36H34V37H33zM35,36H36V37H35zM36,36H37V37H36zM39,36H40V37H39zM44,36H45V37H44zM45,36H46V37H45zM46,36H47V37H46zM49,36H50V37H49zM52,36H53V37H52zM54,36H55V37H54zM57,36H58V37H57zM59,36H60V37H59zM6,37H7V38H6zM8,37H9V38H8zM12,37H13V38H12zM13,37H14V38H13zM15,37H16V38H15zM17,37H18V38H17zM19,37H20V38H19zM20,37H21V38H20zM22,37H23V38H22zM24,37H25V38H24zM25,37H26V38H25zM26,37H27V38H26zM27,37H28V38H27zM30,37H31V38H30zM33,37H34V38H33zM37,37H38V38H37zM41,37H42V38H41zM42,37H43V38H42zM43,37H44V38H43zM45,37H46V38H45zM46,37H47V38H46zM48,37H49V38H48zM49,37H50V38H49zM50,37H51V38H50zM52,37H53V38H52zM56,37H57V38H56zM58,37H59V38H58zM5,38H6V39H5zM6,38H7V39H6zM7,38H8V39H7zM8,38H9V39H8zM10,38H11V39H10zM14,38H15V39H14zM15,38H16V39H15zM16,38H17V39H16zM17,38H18V39H17zM19,38H20V39H19zM24,38H25V39H24zM25,38H26V39H25zM27,38H28V39H27zM29,38H30V39H29zM33,38H34V39H33zM38,38H39V39H38zM40,38H41V39H40zM41,38H42V39H41zM44,38H45V39H44zM45,38H46V39H45zM47,38H48V39H47zM48,38H49V39H48zM49,38H50V39H49zM50,38H51V39H50zM51,38H52V39H51zM52,38H53V39H52zM54,38H55V39H54zM55,38H56V39H55zM59,38H60V39H59zM60,38H61V39H60zM5,39H6V40H5zM8,39H9V40H8zM11,39H12V40H11zM15,39H16V40H15zM16,39H17V40H16zM18,39H19V40H18zM24,39H25V40H24zM25,39H26V40H25zM27,39H28V40H27zM29,39H30V40H29zM34,39H35V40H34zM35,39H36V40H35zM36,39H37V40H36zM40,39H41V40H40zM41,39H42V40H41zM45,39H46V40H45zM46,39H47V40H46zM48,39H49V40H48zM50,39H51V40H50zM52,39H53V40H52zM53,39H54V40H53zM54,39H55V40H54zM55,39H56V40H55zM57,39H58V40H57zM58,39H59V40H58zM60,39H61V40H60zM4,40H5V41H4zM5,40H6V41H5zM9,40H10V41H9zM10,40H11V41H10zM15,40H16V41H15zM16,40H17V41H16zM17,40H18V41H17zM19,40H20V41H19zM20,40H21V41H20zM22,40H23V41H22zM23,40H24V41H23zM24,40H25V41H24zM26,40H27V41H26zM32,40H33V41H32zM35,40H36V41H35zM36,40H37V41H36zM37,40H38V41H37zM39,40H40V41H39zM41,40H42V41H41zM44,40H45V41H44zM46,40H47V41H46zM47,40H48V41H47zM48,40H49V41H48zM49,40H50V41H49zM50,40H51V41H50zM51,40H52V41H51zM52,40H53V41H52zM53,40H54V41H53zM54,40H55V41H54zM55,40H56V41H55zM57,40H58V41H57zM6,41H7V42H6zM9,41H10V42H9zM11,41H12V42H11zM15,41H16V42H15zM19,41H20V42H19zM21,41H22V42H21zM23,41H24V42H23zM25,41H26V42H25zM31,41H32V42H31zM32,41H33V42H32zM33,41H34V42H33zM37,41H38V42H37zM42,41H43V42H42zM43,41H44V42H43zM45,41H46V42H45zM46,41H47V42H46zM53,41H54V42H53zM54,41H55V42H54zM55,41H56V42H55zM4,42H5V43H4zM5,42H6V43H5zM6,42H7V43H6zM7,42H8V43H7zM9,42H10V43H9zM10,42H11V43H10zM11,42H12V43H11zM12,42H13V43H12zM14,42H15V43H14zM18,42H19V43H18zM20,42H21V43H20zM21,42H22V43H21zM24,42H25V43H24zM25,42H26V43H25zM27,42H28V43H27zM28,42H29V43H28zM29,42H30V43H29zM31,42H32V43H31zM33,42H34V43H33zM34,42H35V43H34zM36,42H37V43H36zM37,42H38V43H37zM38,42H39V43H38zM40,42H41V43H40zM41,42H42V43H41zM42,42H43V43H42zM44,42H45V43H44zM45,42H46V43H45zM48,42H49V43H48zM55,42H56V43H55zM57,42H58V43H57zM58,42H59V43H58zM4,43H5V44H4zM6,43H7V44H6zM7,43H8V44H7zM8,43H9V44H8zM14,43H15V44H14zM16,43H17V44H16zM17,43H18V44H17zM23,43H24V44H23zM25,43H26V44H25zM27,43H28V44H27zM29,43H30V44H29zM34,43H35V44H34zM35,43H36V44H35zM42,43H43V44H42zM43,43H44V44H43zM45,43H46V44H45zM48,43H49V44H48zM50,43H51V44H50zM51,43H52V44H51zM52,43H53V44H52zM53,43H54V44H53zM55,43H56V44H55zM57,43H58V44H57zM58,43H59V44H58zM59,43H60V44H59zM5,44H6V45H5zM7,44H8V45H7zM10,44H11V45H10zM11,44H12V45H11zM13,44H14V45H13zM14,44H15V45H14zM15,44H16V45H15zM16,44H17V45H16zM17,44H18V45H17zM18,44H19V45H18zM19,44H20V45H19zM20,44H21V45H20zM22,44H23V45H22zM25,44H26V45H25zM29,44H30V45H29zM30,44H31V45H30zM32,44H33V45H32zM34,44H35V45H34zM36,44H37V45H36zM37,44H38V45H37zM39,44H40V45H39zM40,44H41V45H40zM41,44H42V45H41zM42,44H43V45H42zM43,44H44V45H43zM46,44H47V45H46zM48,44H49V45H48zM49,44H50V45H49zM50,44H51V45H50zM51,44H52V45H51zM53,44H54V45H53zM54,44H55V45H54zM56,44H57V45H56zM57,44H58V45H57zM59,44H60V45H59zM4,45H5V46H4zM7,45H8V46H7zM12,45H13V46H12zM13,45H14V46H13zM14,45H15V46H14zM16,45H17V46H16zM19,45H20V46H19zM20,45H21V46H20zM21,45H22V46H21zM24,45H25V46H24zM25,45H26V46H25zM26,45H27V46H26zM31,45H32V46H31zM32,45H33V46H32zM37,45H38V46H37zM38,45H39V46H38zM39,45H40V46H39zM40,45H41V46H40zM44,45H45V46H44zM46,45H47V46H46zM48,45H49V46H48zM49,45H50V46H49zM50,45H51V46H50zM51,45H52V46H51zM55,45H56V46H55zM56,45H57V46H56zM58,45H59V46H58zM59,45H60V46H59zM60,45H61V46H60zM4,46H5V47H4zM5,46H6V47H5zM6,46H7V47H6zM8,46H9V47H8zM10,46H11V47H10zM11,46H12V47H11zM13,46H14V47H13zM15,46H16V47H15zM18,46H19V47H18zM20,46H21V47H20zM22,46H23V47H22zM25,46H26V47H25zM26,46H27V47H26zM27,46H28V47H27zM28,46H29V47H28zM31,46H32V47H31zM33,46H34V47H33zM37,46H38V47H37zM38,46H39V47H38zM40,46H41V47H40zM42,46H43V47H42zM45,46H46V47H45zM47,46H48V47H47zM48,46H49V47H48zM50,46H51V47H50zM52,46H53V47H52zM54,46H55V47H54zM55,46H56V47H55zM58,46H59V47H58zM60,46H61V47H60zM8,47H9V48H8zM9,47H10V48H9zM11,47H12V48H11zM13,47H14V48H13zM14,47H15V48H14zM15,47H16V48H15zM16,47H17V48H16zM23,47H24V48H23zM25,47H26V48H25zM26,47H27V48H26zM28,47H29V48H28zM29,47H30V48H29zM30,47H31V48H30zM32,47H33V48H32zM43,47H44V48H43zM44,47H45V48H44zM46,47H47V48H46zM50,47H51V48H50zM51,47H52V48H51zM55,47H56V48H55zM56,47H57V48H56zM57,47H58V48H57zM58,47H59V48H58zM4,48H5V49H4zM7,48H8V49H7zM10,48H11V49H10zM13,48H14V49H13zM14,48H15V49H14zM15,48H16V49H15zM19,48H20V49H19zM22,48H23V49H22zM23,48H24V49H23zM28,48H29V49H28zM29,48H30V49H29zM34,48H35V49H34zM36,48H37V49H36zM38,48H39V49H38zM39,48H40V49H39zM41,48H42V49H41zM44,48H45V49H44zM45,48H46V49H45zM47,48H48V49H47zM49,48H50V49H49zM54,48H55V49H54zM55,48H56V49H55zM60,48H61V49H60zM4,49H5V50H4zM5,49H6V50H5zM6,49H7V50H6zM7,49H8V50H7zM9,49H10V50H9zM15,49H16V50H15zM16,49H17V50H16zM17,49H18V50H17zM22,49H23V50H22zM24,49H25V50H24zM25,49H26V50H25zM26,49H27V50H26zM27,49H28V50H27zM28,49H29V50H28zM29,49H30V50H29zM31,49H32V50H31zM33,49H34V50H33zM34,49H35V50H34zM35,49H36V50H35zM37,49H38V50H37zM40,49H41V50H40zM41,49H42V50H41zM42,49H43V50H42zM44,49H45V50H44zM45,49H46V50H45zM46,49H47V50H46zM50,49H51V50H50zM51,49H52V50H51zM53,49H54V50H53zM54,49H55V50H54zM55,49H56V50H55zM56,49H57V50H56zM57,49H58V50H57zM4,50H5V51H4zM6,50H7V51H6zM9,50H10V51H9zM10,50H11V51H10zM11,50H12V51H11zM12,50H13V51H12zM14,50H15V51H14zM16,50H17V51H16zM18,50H19V51H18zM22,50H23V51H22zM25,50H26V51H25zM27,50H28V51H27zM30,50H31V51H30zM31,50H32V51H31zM32,50H33V51H32zM34,50H35V51H34zM35,50H36V51H35zM36,50H37V51H36zM37,50H38V51H37zM38,50H39V51H38zM39,50H40V51H39zM40,50H41V51H40zM43,50H44V51H43zM45,50H46V51H45zM48,50H49V51H48zM49,50H50V51H49zM50,50H51V51H50zM53,50H54V51H53zM54,50H55V51H54zM55,50H56V51H55zM56,50H57V51H56zM59,50H60V51H59zM60,50H61V51H60zM4,51H5V52H4zM5,51H6V52H5zM6,51H7V52H6zM7,51H8V52H7zM8,51H9V52H8zM12,51H13V52H12zM13,51H14V52H13zM14,51H15V52H14zM16,51H17V52H16zM19,51H20V52H19zM23,51H24V52H23zM25,51H26V52H25zM29,51H30V52H29zM31,51H32V52H31zM34,51H35V52H34zM35,51H36V52H35zM39,51H40V52H39zM40,51H41V52H40zM41,51H42V52H41zM42,51H43V52H42zM48,51H49V52H48zM49,51H50V52H49zM50,51H51V52H50zM53,51H54V52H53zM54,51H55V52H54zM56,51H57V52H56zM57,51H58V52H57zM58,51H59V52H58zM59,51H60V52H59zM10,52H11V53H10zM11,52H12V53H11zM14,52H15V53H14zM16,52H17V53H16zM17,52H18V53H17zM19,52H20V53H19zM20,52H21V53H20zM24,52H25V53H24zM25,52H26V53H25zM26,52H27V53H26zM28,52H29V53H28zM30,52H31V53H30zM31,52H32V53H31zM32,52H33V53H32zM33,52H34V53H33zM34,52H35V53H34zM36,52H37V53H36zM37,52H38V53H37zM38,52H39V53H38zM39,52H40V53H39zM40,52H41V53H40zM41,52H42V53H41zM44,52H45V53H44zM46,52H47V53H46zM48,52H49V53H48zM50,52H51V53H50zM51,52H52V53H51zM52,52H53V53H52zM53,52H54V53H53zM54,52H55V53H54zM55,52H56V53H55zM56,52H57V53H56zM57,52H58V53H57zM60,52H61V53H60zM12,53H13V54H12zM15,53H16V54H15zM17,53H18V54H17zM18,53H19V54H18zM20,53H21V54H20zM21,53H22V54H21zM25,53H26V54H25zM27,53H28V54H27zM28,53H29V54H28zM30,53H31V54H30zM34,53H35V54H34zM35,53H36V54H35zM37,53H38V54H37zM39,53H40V54H39zM40,53H41V54H40zM45,53H46V54H45zM46,53H47V54H46zM47,53H48V54H47zM49,53H50V54H49zM51,53H52V54H51zM52,53H53V54H52zM56,53H57V54H56zM59,53H60V54H59zM4,54H5V55H4zM5,54H6V55H5zM6,54H7V55H6zM7,54H8V55H7zM8,54H9V55H8zM9,54H10V55H9zM10,54H11V55H10zM12,54H13V55H12zM14,54H15V55H14zM16,54H17V55H16zM18,54H19V55H18zM19,54H20V55H19zM20,54H21V55H20zM24,54H25V55H24zM26,54H27V55H26zM27,54H28V55H27zM28,54H29V55H28zM29,54H30V55H29zM30,54H31V55H30zM32,54H33V55H32zM34,54H35V55H34zM38,54H39V55H38zM40,54H41V55H40zM41,54H42V55H41zM43,54H44V55H43zM45,54H46V55H45zM46,54H47V55H46zM49,54H50V55H49zM51,54H52V55H51zM52,54H53V55H52zM54,54H55V55H54zM56,54H57V55H56zM57,54H58V55H57zM58,54H59V55H58zM4,55H5V56H4zM10,55H11V56H10zM13,55H14V56H13zM16,55H17V56H16zM18,55H19V56H18zM19,55H20V56H19zM22,55H23V56H22zM23,55H24V56H23zM25,55H26V56H25zM28,55H29V56H28zM29,55H30V56H29zM30,55H31V56H30zM34,55H35V56H34zM35,55H36V56H35zM36,55H37V56H36zM37,55H38V56H37zM38,55H39V56H38zM40,55H41V56H40zM41,55H42V56H41zM42,55H43V56H42zM43,55H44V56H43zM45,55H46V56H45zM46,55H47V56H46zM47,55H48V56H47zM49,55H50V56H49zM50,55H51V56H50zM52,55H53V56H52zM56,55H57V56H56zM57,55H58V56H57zM58,55H59V56H58zM4,56H5V57H4zM6,56H7V57H6zM7,56H8V57H7zM8,56H9V57H8zM10,56H11V57H10zM12,56H13V57H12zM13,56H14V57H13zM19,56H20V57H19zM20,56H21V57H20zM21,56H22V57H21zM26,56H27V57H26zM29,56H30V57H29zM30,56H31V57H30zM31,56H32V57H31zM32,56H33V57H32zM33,56H34V57H33zM34,56H35V57H34zM35,56H36V57H35zM39,56H40V57H39zM41,56H42V57H41zM42,56H43V57H42zM47,56H48V57H47zM48,56H49V57H48zM51,56H52V57H51zM52,56H53V57H52zM53,56H54V57H53zM54,56H55V57H54zM55,56H56V57H55zM56,56H57V57H56zM57,56H58V57H57zM60,56H61V57H60zM4,57H5V58H4zM6,57H7V58H6zM7,57H8V58H7zM8,57H9V58H8zM10,57H11V58H10zM12,57H13V58H12zM14,57H15V58H14zM15,57H16V58H15zM17,57H18V58H17zM20,57H21V58H20zM23,57H24V58H23zM24,57H25V58H24zM26,57H27V58H26zM27,57H28V58H27zM29,57H30V58H29zM32,57H33V58H32zM35,57H36V58H35zM36,57H37V58H36zM37,57H38V58H37zM38,57H39V58H38zM43,57H44V58H43zM44,57H45V58H44zM45,57H46V58H45zM46,57H47V58H46zM49,57H50V58H49zM50,57H51V58H50zM51,57H52V58H51zM53,57H54V58H53zM55,57H56V58H55zM58,57H59V58H58zM4,58H5V59H4zM6,58H7V59H6zM7,58H8V59H7zM8,58H9V59H8zM10,58H11V59H10zM13,58H14V59H13zM14,58H15V59H14zM18,58H19V59H18zM19,58H20V59H19zM20,58H21V59H20zM22,58H23V59H22zM25,58H26V59H25zM27,58H28V59H27zM28,58H29V59H28zM32,58H33V59H32zM33,58H34V59H33zM36,58H37V59H36zM37,58H38V59H37zM39,58H40V59H39zM43,58H44V59H43zM44,58H45V59H44zM48,58H49V59H48zM49,58H50V59H49zM52,58H53V59H52zM54,58H55V59H54zM56,58H57V59H56zM59,58H60V59H59zM60,58H61V59H60zM4,59H5V60H4zM10,59H11V60H10zM13,59H14V60H13zM14,59H15V60H14zM16,59H17V60H16zM17,59H18V60H17zM20,59H21V60H20zM22,59H23V60H22zM24,59H25V60H24zM26,59H27V60H26zM27,59H28V60H27zM28,59H29V60H28zM30,59H31V60H30zM33,59H34V60H33zM35,59H36V60H35zM38,59H39V60H38zM39,59H40V60H39zM41,59H42V60H41zM42,59H43V60H42zM45,59H46V60H45zM47,59H48V60H47zM49,59H50V60H49zM50,59H51V60H50zM54,59H55V60H54zM58,59H59V60H58zM59,59H60V60H59zM60,59H61V60H60zM4,60H5V61H4zM5,60H6V61H5zM6,60H7V61H6zM7,60H8V61H7zM8,60H9V61H8zM9,60H10V61H9zM10,60H11V61H10zM13,60H14V61H13zM18,60H19V61H18zM19,60H20V61H19zM20,60H21V61H20zM21,60H22V61H21zM23,60H24V61H23zM28,60H29V61H28zM30,60H31V61H30zM34,60H35V61H34zM38,60H39V61H38zM39,60H40V61H39zM40,60H41V61H40zM41,60H42V61H41zM42,60H43V61H42zM49,60H50V61H49zM52,60H53V61H52zM54,60H55V61H54zM55,60H56V61H55zM57,60H58V61H57z" id="qr-path" fill="#000000" fill-opacity="1" fill-rule="nonzero" stroke="none"/></svg>