<svg xmlns="http://www.w3.org/2000/svg" width="360" height="360" viewBox="0 0 360 360" role="img" aria-label="QR code SUEDS Opinario"><rect width="100%" height="100%" fill="white"/><g fill="black"><rect x="32" y="32" width="8" height="8"/><rect x="40" y="32" width="8" height="8"/><rect x="48" y="32" width="8" height="8"/><rect x="56" y="32" width="8" height="8"/><rect x="64" y="32" width="8" height="8"/><rect x="72" y="32" width="8" height="8"/><rect x="80" y="32" width="8" height="8"/><rect x="104" y="32" width="8" height="8"/><rect x="136" y="32" width="8" height="8"/><rect x="144" y="32" width="8" height="8"/><rect x="184" y="32" width="8" height="8"/><rect x="192" y="32" width="8" height="8"/><rect x="216" y="32" width="8" height="8"/><rect x="224" y="32" width="8" height="8"/><rect x="256" y="32" width="8" height="8"/><rect x="272" y="32" width="8" height="8"/><rect x="280" y="32" width="8" height="8"/><rect x="288" y="32" width="8" height="8"/><rect x="296" y="32" width="8" height="8"/><rect x="304" y="32" width="8" height="8"/><rect x="312" y="32" width="8" height="8"/><rect x="320" y="32" width="8" height="8"/><rect x="32" y="40" width="8" height="8"/><rect x="80" y="40" width="8" height="8"/><rect x="96" y="40" width="8" height="8"/><rect x="144" y="40" width="8" height="8"/><rect x="152" y="40" width="8" height="8"/><rect x="176" y="40" width="8" height="8"/><rect x="192" y="40" width="8" height="8"/><rect x="208" y="40" width="8" height="8"/><rect x="240" y="40" width="8" height="8"/><rect x="248" y="40" width="8" height="8"/><rect x="272" y="40" width="8" height="8"/><rect x="320" y="40" width="8" height="8"/><rect x="32" y="48" width="8" height="8"/><rect x="48" y="48" width="8" height="8"/><rect x="56" y="48" width="8" height="8"/><rect x="64" y="48" width="8" height="8"/><rect x="80" y="48" width="8" height="8"/><rect x="104" y="48" width="8" height="8"/><rect x="144" y="48" width="8" height="8"/><rect x="160" y="48" width="8" height="8"/><rect x="176" y="48" width="8" height="8"/><rect x="192" y="48" width="8" height="8"/><rect x="200" y="48" width="8" height="8"/><rect x="216" y="48" width="8" height="8"/><rect x="240" y="48" width="8" height="8"/><rect x="256" y="48" width="8" height="8"/><rect x="272" y="48" width="8" height="8"/><rect x="288" y="48" width="8" height="8"/><rect x="296" y="48" width="8" height="8"/><rect x="304" y="48" width="8" height="8"/><rect x="320" y="48" width="8" height="8"/><rect x="32" y="56" width="8" height="8"/><rect x="48" y="56" width="8" height="8"/><rect x="56" y="56" width="8" height="8"/><rect x="64" y="56" width="8" height="8"/><rect x="80" y="56" width="8" height="8"/><rect x="96" y="56" width="8" height="8"/><rect x="104" y="56" width="8" height="8"/><rect x="112" y="56" width="8" height="8"/><rect x="120" y="56" width="8" height="8"/><rect x="128" y="56" width="8" height="8"/><rect x="136" y="56" width="8" height="8"/><rect x="168" y="56" width="8" height="8"/><rect x="184" y="56" width="8" height="8"/><rect x="208" y="56" width="8" height="8"/><rect x="216" y="56" width="8" height="8"/><rect x="224" y="56" width="8" height="8"/><rect x="232" y="56" width="8" height="8"/><rect x="240" y="56" width="8" height="8"/><rect x="248" y="56" width="8" height="8"/><rect x="256" y="56" width="8" height="8"/><rect x="272" y="56" width="8" height="8"/><rect x="288" y="56" width="8" height="8"/><rect x="296" y="56" width="8" height="8"/><rect x="304" y="56" width="8" height="8"/><rect x="320" y="56" width="8" height="8"/><rect x="32" y="64" width="8" height="8"/><rect x="48" y="64" width="8" height="8"/><rect x="56" y="64" width="8" height="8"/><rect x="64" y="64" width="8" height="8"/><rect x="80" y="64" width="8" height="8"/><rect x="104" y="64" width="8" height="8"/><rect x="112" y="64" width="8" height="8"/><rect x="120" y="64" width="8" height="8"/><rect x="128" y="64" width="8" height="8"/><rect x="144" y="64" width="8" height="8"/><rect x="160" y="64" width="8" height="8"/><rect x="168" y="64" width="8" height="8"/><rect x="176" y="64" width="8" height="8"/><rect x="184" y="64" width="8" height="8"/><rect x="216" y="64" width="8" height="8"/><rect x="240" y="64" width="8" height="8"/><rect x="256" y="64" width="8" height="8"/><rect x="272" y="64" width="8" height="8"/><rect x="288" y="64" width="8" height="8"/><rect x="296" y="64" width="8" height="8"/><rect x="304" y="64" width="8" height="8"/><rect x="320" y="64" width="8" height="8"/><rect x="32" y="72" width="8" height="8"/><rect x="80" y="72" width="8" height="8"/><rect x="96" y="72" width="8" height="8"/><rect x="128" y="72" width="8" height="8"/><rect x="136" y="72" width="8" height="8"/><rect x="152" y="72" width="8" height="8"/><rect x="160" y="72" width="8" height="8"/><rect x="192" y="72" width="8" height="8"/><rect x="200" y="72" width="8" height="8"/><rect x="232" y="72" width="8" height="8"/><rect x="248" y="72" width="8" height="8"/><rect x="272" y="72" width="8" height="8"/><rect x="320" y="72" width="8" height="8"/><rect x="32" y="80" width="8" height="8"/><rect x="40" y="80" width="8" height="8"/><rect x="48" y="80" width="8" height="8"/><rect x="56" y="80" width="8" height="8"/><rect x="64" y="80" width="8" height="8"/><rect x="72" y="80" width="8" height="8"/><rect x="80" y="80" width="8" height="8"/><rect x="96" y="80" width="8" height="8"/><rect x="112" y="80" width="8" height="8"/><rect x="128" y="80" width="8" height="8"/><rect x="144" y="80" width="8" height="8"/><rect x="160" y="80" width="8" height="8"/><rect x="176" y="80" width="8" height="8"/><rect x="192" y="80" width="8" height="8"/><rect x="208" y="80" width="8" height="8"/><rect x="224" y="80" width="8" height="8"/><rect x="240" y="80" width="8" height="8"/><rect x="256" y="80" width="8" height="8"/><rect x="272" y="80" width="8" height="8"/><rect x="280" y="80" width="8" height="8"/><rect x="288" y="80" width="8" height="8"/><rect x="296" y="80" width="8" height="8"/><rect x="304" y="80" width="8" height="8"/><rect x="312" y="80" width="8" height="8"/><rect x="320" y="80" width="8" height="8"/><rect x="104" y="88" width="8" height="8"/><rect x="160" y="88" width="8" height="8"/><rect x="176" y="88" width="8" height="8"/><rect x="184" y="88" width="8" height="8"/><rect x="200" y="88" width="8" height="8"/><rect x="224" y="88" width="8" height="8"/><rect x="256" y="88" width="8" height="8"/><rect x="32" y="96" width="8" height="8"/><rect x="40" y="96" width="8" height="8"/><rect x="48" y="96" width="8" height="8"/><rect x="56" y="96" width="8" height="8"/><rect x="64" y="96" width="8" height="8"/><rect x="80" y="96" width="8" height="8"/><rect x="88" y="96" width="8" height="8"/><rect x="96" y="96" width="8" height="8"/><rect x="104" y="96" width="8" height="8"/><rect x="136" y="96" width="8" height="8"/><rect x="168" y="96" width="8" height="8"/><rect x="192" y="96" width="8" height="8"/><rect x="208" y="96" width="8" height="8"/><rect x="216" y="96" width="8" height="8"/><rect x="224" y="96" width="8" height="8"/><rect x="232" y="96" width="8" height="8"/><rect x="240" y="96" width="8" height="8"/><rect x="264" y="96" width="8" height="8"/><rect x="280" y="96" width="8" height="8"/><rect x="296" y="96" width="8" height="8"/><rect x="312" y="96" width="8" height="8"/><rect x="64" y="104" width="8" height="8"/><rect x="72" y="104" width="8" height="8"/><rect x="88" y="104" width="8" height="8"/><rect x="104" y="104" width="8" height="8"/><rect x="120" y="104" width="8" height="8"/><rect x="144" y="104" width="8" height="8"/><rect x="160" y="104" width="8" height="8"/><rect x="176" y="104" width="8" height="8"/><rect x="184" y="104" width="8" height="8"/><rect x="192" y="104" width="8" height="8"/><rect x="200" y="104" width="8" height="8"/><rect x="208" y="104" width="8" height="8"/><rect x="216" y="104" width="8" height="8"/><rect x="264" y="104" width="8" height="8"/><rect x="280" y="104" width="8" height="8"/><rect x="296" y="104" width="8" height="8"/><rect x="304" y="104" width="8" height="8"/><rect x="312" y="104" width="8" height="8"/><rect x="32" y="112" width="8" height="8"/><rect x="48" y="112" width="8" height="8"/><rect x="80" y="112" width="8" height="8"/><rect x="88" y="112" width="8" height="8"/><rect x="104" y="112" width="8" height="8"/><rect x="128" y="112" width="8" height="8"/><rect x="152" y="112" width="8" height="8"/><rect x="160" y="112" width="8" height="8"/><rect x="176" y="112" width="8" height="8"/><rect x="200" y="112" width="8" height="8"/><rect x="208" y="112" width="8" height="8"/><rect x="224" y="112" width="8" height="8"/><rect x="232" y="112" width="8" height="8"/><rect x="248" y="112" width="8" height="8"/><rect x="256" y="112" width="8" height="8"/><rect x="272" y="112" width="8" height="8"/><rect x="280" y="112" width="8" height="8"/><rect x="296" y="112" width="8" height="8"/><rect x="304" y="112" width="8" height="8"/><rect x="320" y="112" width="8" height="8"/><rect x="40" y="120" width="8" height="8"/><rect x="48" y="120" width="8" height="8"/><rect x="72" y="120" width="8" height="8"/><rect x="88" y="120" width="8" height="8"/><rect x="104" y="120" width="8" height="8"/><rect x="128" y="120" width="8" height="8"/><rect x="152" y="120" width="8" height="8"/><rect x="192" y="120" width="8" height="8"/><rect x="200" y="120" width="8" height="8"/><rect x="216" y="120" width="8" height="8"/><rect x="224" y="120" width="8" height="8"/><rect x="240" y="120" width="8" height="8"/><rect x="264" y="120" width="8" height="8"/><rect x="280" y="120" width="8" height="8"/><rect x="288" y="120" width="8" height="8"/><rect x="296" y="120" width="8" height="8"/><rect x="312" y="120" width="8" height="8"/><rect x="32" y="128" width="8" height="8"/><rect x="40" y="128" width="8" height="8"/><rect x="48" y="128" width="8" height="8"/><rect x="80" y="128" width="8" height="8"/><rect x="88" y="128" width="8" height="8"/><rect x="104" y="128" width="8" height="8"/><rect x="112" y="128" width="8" height="8"/><rect x="136" y="128" width="8" height="8"/><rect x="168" y="128" width="8" height="8"/><rect x="208" y="128" width="8" height="8"/><rect x="232" y="128" width="8" height="8"/><rect x="240" y="128" width="8" height="8"/><rect x="248" y="128" width="8" height="8"/><rect x="256" y="128" width="8" height="8"/><rect x="264" y="128" width="8" height="8"/><rect x="272" y="128" width="8" height="8"/><rect x="288" y="128" width="8" height="8"/><rect x="296" y="128" width="8" height="8"/><rect x="304" y="128" width="8" height="8"/><rect x="320" y="128" width="8" height="8"/><rect x="32" y="136" width="8" height="8"/><rect x="40" y="136" width="8" height="8"/><rect x="48" y="136" width="8" height="8"/><rect x="56" y="136" width="8" height="8"/><rect x="72" y="136" width="8" height="8"/><rect x="88" y="136" width="8" height="8"/><rect x="104" y="136" width="8" height="8"/><rect x="112" y="136" width="8" height="8"/><rect x="120" y="136" width="8" height="8"/><rect x="144" y="136" width="8" height="8"/><rect x="160" y="136" width="8" height="8"/><rect x="168" y="136" width="8" height="8"/><rect x="184" y="136" width="8" height="8"/><rect x="192" y="136" width="8" height="8"/><rect x="216" y="136" width="8" height="8"/><rect x="256" y="136" width="8" height="8"/><rect x="264" y="136" width="8" height="8"/><rect x="304" y="136" width="8" height="8"/><rect x="312" y="136" width="8" height="8"/><rect x="32" y="144" width="8" height="8"/><rect x="40" y="144" width="8" height="8"/><rect x="56" y="144" width="8" height="8"/><rect x="64" y="144" width="8" height="8"/><rect x="80" y="144" width="8" height="8"/><rect x="88" y="144" width="8" height="8"/><rect x="104" y="144" width="8" height="8"/><rect x="112" y="144" width="8" height="8"/><rect x="136" y="144" width="8" height="8"/><rect x="152" y="144" width="8" height="8"/><rect x="160" y="144" width="8" height="8"/><rect x="168" y="144" width="8" height="8"/><rect x="176" y="144" width="8" height="8"/><rect x="192" y="144" width="8" height="8"/><rect x="200" y="144" width="8" height="8"/><rect x="208" y="144" width="8" height="8"/><rect x="240" y="144" width="8" height="8"/><rect x="248" y="144" width="8" height="8"/><rect x="264" y="144" width="8" height="8"/><rect x="272" y="144" width="8" height="8"/><rect x="304" y="144" width="8" height="8"/><rect x="312" y="144" width="8" height="8"/><rect x="320" y="144" width="8" height="8"/><rect x="40" y="152" width="8" height="8"/><rect x="56" y="152" width="8" height="8"/><rect x="64" y="152" width="8" height="8"/><rect x="72" y="152" width="8" height="8"/><rect x="96" y="152" width="8" height="8"/><rect x="104" y="152" width="8" height="8"/><rect x="112" y="152" width="8" height="8"/><rect x="176" y="152" width="8" height="8"/><rect x="192" y="152" width="8" height="8"/><rect x="200" y="152" width="8" height="8"/><rect x="208" y="152" width="8" height="8"/><rect x="224" y="152" width="8" height="8"/><rect x="240" y="152" width="8" height="8"/><rect x="248" y="152" width="8" height="8"/><rect x="256" y="152" width="8" height="8"/><rect x="264" y="152" width="8" height="8"/><rect x="272" y="152" width="8" height="8"/><rect x="280" y="152" width="8" height="8"/><rect x="296" y="152" width="8" height="8"/><rect x="320" y="152" width="8" height="8"/><rect x="40" y="160" width="8" height="8"/><rect x="48" y="160" width="8" height="8"/><rect x="56" y="160" width="8" height="8"/><rect x="64" y="160" width="8" height="8"/><rect x="80" y="160" width="8" height="8"/><rect x="120" y="160" width="8" height="8"/><rect x="136" y="160" width="8" height="8"/><rect x="152" y="160" width="8" height="8"/><rect x="160" y="160" width="8" height="8"/><rect x="168" y="160" width="8" height="8"/><rect x="208" y="160" width="8" height="8"/><rect x="224" y="160" width="8" height="8"/><rect x="232" y="160" width="8" height="8"/><rect x="240" y="160" width="8" height="8"/><rect x="264" y="160" width="8" height="8"/><rect x="272" y="160" width="8" height="8"/><rect x="288" y="160" width="8" height="8"/><rect x="296" y="160" width="8" height="8"/><rect x="304" y="160" width="8" height="8"/><rect x="320" y="160" width="8" height="8"/><rect x="32" y="168" width="8" height="8"/><rect x="56" y="168" width="8" height="8"/><rect x="64" y="168" width="8" height="8"/><rect x="88" y="168" width="8" height="8"/><rect x="120" y="168" width="8" height="8"/><rect x="128" y="168" width="8" height="8"/><rect x="144" y="168" width="8" height="8"/><rect x="160" y="168" width="8" height="8"/><rect x="176" y="168" width="8" height="8"/><rect x="184" y="168" width="8" height="8"/><rect x="192" y="168" width="8" height="8"/><rect x="216" y="168" width="8" height="8"/><rect x="232" y="168" width="8" height="8"/><rect x="256" y="168" width="8" height="8"/><rect x="280" y="168" width="8" height="8"/><rect x="304" y="168" width="8" height="8"/><rect x="312" y="168" width="8" height="8"/><rect x="32" y="176" width="8" height="8"/><rect x="56" y="176" width="8" height="8"/><rect x="64" y="176" width="8" height="8"/><rect x="72" y="176" width="8" height="8"/><rect x="80" y="176" width="8" height="8"/><rect x="88" y="176" width="8" height="8"/><rect x="136" y="176" width="8" height="8"/><rect x="144" y="176" width="8" height="8"/><rect x="152" y="176" width="8" height="8"/><rect x="176" y="176" width="8" height="8"/><rect x="192" y="176" width="8" height="8"/><rect x="200" y="176" width="8" height="8"/><rect x="208" y="176" width="8" height="8"/><rect x="224" y="176" width="8" height="8"/><rect x="240" y="176" width="8" height="8"/><rect x="248" y="176" width="8" height="8"/><rect x="256" y="176" width="8" height="8"/><rect x="264" y="176" width="8" height="8"/><rect x="272" y="176" width="8" height="8"/><rect x="288" y="176" width="8" height="8"/><rect x="304" y="176" width="8" height="8"/><rect x="312" y="176" width="8" height="8"/><rect x="320" y="176" width="8" height="8"/><rect x="32" y="184" width="8" height="8"/><rect x="40" y="184" width="8" height="8"/><rect x="64" y="184" width="8" height="8"/><rect x="88" y="184" width="8" height="8"/><rect x="96" y="184" width="8" height="8"/><rect x="104" y="184" width="8" height="8"/><rect x="120" y="184" width="8" height="8"/><rect x="192" y="184" width="8" height="8"/><rect x="200" y="184" width="8" height="8"/><rect x="216" y="184" width="8" height="8"/><rect x="248" y="184" width="8" height="8"/><rect x="256" y="184" width="8" height="8"/><rect x="264" y="184" width="8" height="8"/><rect x="272" y="184" width="8" height="8"/><rect x="320" y="184" width="8" height="8"/><rect x="40" y="192" width="8" height="8"/><rect x="48" y="192" width="8" height="8"/><rect x="56" y="192" width="8" height="8"/><rect x="72" y="192" width="8" height="8"/><rect x="80" y="192" width="8" height="8"/><rect x="88" y="192" width="8" height="8"/><rect x="96" y="192" width="8" height="8"/><rect x="128" y="192" width="8" height="8"/><rect x="136" y="192" width="8" height="8"/><rect x="152" y="192" width="8" height="8"/><rect x="160" y="192" width="8" height="8"/><rect x="168" y="192" width="8" height="8"/><rect x="176" y="192" width="8" height="8"/><rect x="192" y="192" width="8" height="8"/><rect x="216" y="192" width="8" height="8"/><rect x="224" y="192" width="8" height="8"/><rect x="232" y="192" width="8" height="8"/><rect x="248" y="192" width="8" height="8"/><rect x="264" y="192" width="8" height="8"/><rect x="272" y="192" width="8" height="8"/><rect x="280" y="192" width="8" height="8"/><rect x="288" y="192" width="8" height="8"/><rect x="296" y="192" width="8" height="8"/><rect x="304" y="192" width="8" height="8"/><rect x="312" y="192" width="8" height="8"/><rect x="320" y="192" width="8" height="8"/><rect x="32" y="200" width="8" height="8"/><rect x="40" y="200" width="8" height="8"/><rect x="88" y="200" width="8" height="8"/><rect x="112" y="200" width="8" height="8"/><rect x="120" y="200" width="8" height="8"/><rect x="144" y="200" width="8" height="8"/><rect x="160" y="200" width="8" height="8"/><rect x="176" y="200" width="8" height="8"/><rect x="184" y="200" width="8" height="8"/><rect x="192" y="200" width="8" height="8"/><rect x="208" y="200" width="8" height="8"/><rect x="216" y="200" width="8" height="8"/><rect x="232" y="200" width="8" height="8"/><rect x="256" y="200" width="8" height="8"/><rect x="280" y="200" width="8" height="8"/><rect x="312" y="200" width="8" height="8"/><rect x="40" y="208" width="8" height="8"/><rect x="64" y="208" width="8" height="8"/><rect x="80" y="208" width="8" height="8"/><rect x="88" y="208" width="8" height="8"/><rect x="96" y="208" width="8" height="8"/><rect x="104" y="208" width="8" height="8"/><rect x="112" y="208" width="8" height="8"/><rect x="128" y="208" width="8" height="8"/><rect x="152" y="208" width="8" height="8"/><rect x="160" y="208" width="8" height="8"/><rect x="168" y="208" width="8" height="8"/><rect x="192" y="208" width="8" height="8"/><rect x="208" y="208" width="8" height="8"/><rect x="232" y="208" width="8" height="8"/><rect x="240" y="208" width="8" height="8"/><rect x="248" y="208" width="8" height="8"/><rect x="264" y="208" width="8" height="8"/><rect x="272" y="208" width="8" height="8"/><rect x="280" y="208" width="8" height="8"/><rect x="296" y="208" width="8" height="8"/><rect x="312" y="208" width="8" height="8"/><rect x="320" y="208" width="8" height="8"/><rect x="32" y="216" width="8" height="8"/><rect x="48" y="216" width="8" height="8"/><rect x="56" y="216" width="8" height="8"/><rect x="96" y="216" width="8" height="8"/><rect x="104" y="216" width="8" height="8"/><rect x="112" y="216" width="8" height="8"/><rect x="120" y="216" width="8" height="8"/><rect x="152" y="216" width="8" height="8"/><rect x="160" y="216" width="8" height="8"/><rect x="176" y="216" width="8" height="8"/><rect x="184" y="216" width="8" height="8"/><rect x="200" y="216" width="8" height="8"/><rect x="208" y="216" width="8" height="8"/><rect x="224" y="216" width="8" height="8"/><rect x="248" y="216" width="8" height="8"/><rect x="256" y="216" width="8" height="8"/><rect x="272" y="216" width="8" height="8"/><rect x="320" y="216" width="8" height="8"/><rect x="40" y="224" width="8" height="8"/><rect x="48" y="224" width="8" height="8"/><rect x="64" y="224" width="8" height="8"/><rect x="72" y="224" width="8" height="8"/><rect x="80" y="224" width="8" height="8"/><rect x="96" y="224" width="8" height="8"/><rect x="104" y="224" width="8" height="8"/><rect x="120" y="224" width="8" height="8"/><rect x="128" y="224" width="8" height="8"/><rect x="136" y="224" width="8" height="8"/><rect x="152" y="224" width="8" height="8"/><rect x="168" y="224" width="8" height="8"/><rect x="192" y="224" width="8" height="8"/><rect x="208" y="224" width="8" height="8"/><rect x="216" y="224" width="8" height="8"/><rect x="224" y="224" width="8" height="8"/><rect x="232" y="224" width="8" height="8"/><rect x="240" y="224" width="8" height="8"/><rect x="248" y="224" width="8" height="8"/><rect x="256" y="224" width="8" height="8"/><rect x="264" y="224" width="8" height="8"/><rect x="272" y="224" width="8" height="8"/><rect x="288" y="224" width="8" height="8"/><rect x="296" y="224" width="8" height="8"/><rect x="304" y="224" width="8" height="8"/><rect x="312" y="224" width="8" height="8"/><rect x="320" y="224" width="8" height="8"/><rect x="32" y="232" width="8" height="8"/><rect x="40" y="232" width="8" height="8"/><rect x="48" y="232" width="8" height="8"/><rect x="56" y="232" width="8" height="8"/><rect x="64" y="232" width="8" height="8"/><rect x="88" y="232" width="8" height="8"/><rect x="96" y="232" width="8" height="8"/><rect x="104" y="232" width="8" height="8"/><rect x="120" y="232" width="8" height="8"/><rect x="144" y="232" width="8" height="8"/><rect x="160" y="232" width="8" height="8"/><rect x="176" y="232" width="8" height="8"/><rect x="184" y="232" width="8" height="8"/><rect x="192" y="232" width="8" height="8"/><rect x="216" y="232" width="8" height="8"/><rect x="256" y="232" width="8" height="8"/><rect x="264" y="232" width="8" height="8"/><rect x="280" y="232" width="8" height="8"/><rect x="296" y="232" width="8" height="8"/><rect x="312" y="232" width="8" height="8"/><rect x="32" y="240" width="8" height="8"/><rect x="48" y="240" width="8" height="8"/><rect x="56" y="240" width="8" height="8"/><rect x="80" y="240" width="8" height="8"/><rect x="136" y="240" width="8" height="8"/><rect x="144" y="240" width="8" height="8"/><rect x="152" y="240" width="8" height="8"/><rect x="168" y="240" width="8" height="8"/><rect x="192" y="240" width="8" height="8"/><rect x="200" y="240" width="8" height="8"/><rect x="224" y="240" width="8" height="8"/><rect x="248" y="240" width="8" height="8"/><rect x="256" y="240" width="8" height="8"/><rect x="272" y="240" width="8" height="8"/><rect x="280" y="240" width="8" height="8"/><rect x="288" y="240" width="8" height="8"/><rect x="312" y="240" width="8" height="8"/><rect x="320" y="240" width="8" height="8"/><rect x="32" y="248" width="8" height="8"/><rect x="48" y="248" width="8" height="8"/><rect x="56" y="248" width="8" height="8"/><rect x="64" y="248" width="8" height="8"/><rect x="88" y="248" width="8" height="8"/><rect x="96" y="248" width="8" height="8"/><rect x="104" y="248" width="8" height="8"/><rect x="128" y="248" width="8" height="8"/><rect x="144" y="248" width="8" height="8"/><rect x="160" y="248" width="8" height="8"/><rect x="176" y="248" width="8" height="8"/><rect x="192" y="248" width="8" height="8"/><rect x="200" y="248" width="8" height="8"/><rect x="224" y="248" width="8" height="8"/><rect x="240" y="248" width="8" height="8"/><rect x="256" y="248" width="8" height="8"/><rect x="264" y="248" width="8" height="8"/><rect x="280" y="248" width="8" height="8"/><rect x="288" y="248" width="8" height="8"/><rect x="320" y="248" width="8" height="8"/><rect x="32" y="256" width="8" height="8"/><rect x="48" y="256" width="8" height="8"/><rect x="56" y="256" width="8" height="8"/><rect x="64" y="256" width="8" height="8"/><rect x="72" y="256" width="8" height="8"/><rect x="80" y="256" width="8" height="8"/><rect x="88" y="256" width="8" height="8"/><rect x="112" y="256" width="8" height="8"/><rect x="128" y="256" width="8" height="8"/><rect x="136" y="256" width="8" height="8"/><rect x="152" y="256" width="8" height="8"/><rect x="160" y="256" width="8" height="8"/><rect x="168" y="256" width="8" height="8"/><rect x="184" y="256" width="8" height="8"/><rect x="192" y="256" width="8" height="8"/><rect x="208" y="256" width="8" height="8"/><rect x="232" y="256" width="8" height="8"/><rect x="240" y="256" width="8" height="8"/><rect x="256" y="256" width="8" height="8"/><rect x="264" y="256" width="8" height="8"/><rect x="272" y="256" width="8" height="8"/><rect x="280" y="256" width="8" height="8"/><rect x="288" y="256" width="8" height="8"/><rect x="304" y="256" width="8" height="8"/><rect x="96" y="264" width="8" height="8"/><rect x="104" y="264" width="8" height="8"/><rect x="120" y="264" width="8" height="8"/><rect x="144" y="264" width="8" height="8"/><rect x="160" y="264" width="8" height="8"/><rect x="168" y="264" width="8" height="8"/><rect x="176" y="264" width="8" height="8"/><rect x="184" y="264" width="8" height="8"/><rect x="216" y="264" width="8" height="8"/><rect x="240" y="264" width="8" height="8"/><rect x="248" y="264" width="8" height="8"/><rect x="256" y="264" width="8" height="8"/><rect x="288" y="264" width="8" height="8"/><rect x="296" y="264" width="8" height="8"/><rect x="32" y="272" width="8" height="8"/><rect x="40" y="272" width="8" height="8"/><rect x="48" y="272" width="8" height="8"/><rect x="56" y="272" width="8" height="8"/><rect x="64" y="272" width="8" height="8"/><rect x="72" y="272" width="8" height="8"/><rect x="80" y="272" width="8" height="8"/><rect x="96" y="272" width="8" height="8"/><rect x="128" y="272" width="8" height="8"/><rect x="152" y="272" width="8" height="8"/><rect x="160" y="272" width="8" height="8"/><rect x="168" y="272" width="8" height="8"/><rect x="208" y="272" width="8" height="8"/><rect x="256" y="272" width="8" height="8"/><rect x="272" y="272" width="8" height="8"/><rect x="288" y="272" width="8" height="8"/><rect x="304" y="272" width="8" height="8"/><rect x="312" y="272" width="8" height="8"/><rect x="320" y="272" width="8" height="8"/><rect x="32" y="280" width="8" height="8"/><rect x="80" y="280" width="8" height="8"/><rect x="104" y="280" width="8" height="8"/><rect x="144" y="280" width="8" height="8"/><rect x="160" y="280" width="8" height="8"/><rect x="192" y="280" width="8" height="8"/><rect x="200" y="280" width="8" height="8"/><rect x="208" y="280" width="8" height="8"/><rect x="216" y="280" width="8" height="8"/><rect x="256" y="280" width="8" height="8"/><rect x="288" y="280" width="8" height="8"/><rect x="32" y="288" width="8" height="8"/><rect x="48" y="288" width="8" height="8"/><rect x="56" y="288" width="8" height="8"/><rect x="64" y="288" width="8" height="8"/><rect x="80" y="288" width="8" height="8"/><rect x="96" y="288" width="8" height="8"/><rect x="104" y="288" width="8" height="8"/><rect x="120" y="288" width="8" height="8"/><rect x="128" y="288" width="8" height="8"/><rect x="136" y="288" width="8" height="8"/><rect x="160" y="288" width="8" height="8"/><rect x="168" y="288" width="8" height="8"/><rect x="184" y="288" width="8" height="8"/><rect x="208" y="288" width="8" height="8"/><rect x="216" y="288" width="8" height="8"/><rect x="224" y="288" width="8" height="8"/><rect x="232" y="288" width="8" height="8"/><rect x="240" y="288" width="8" height="8"/><rect x="248" y="288" width="8" height="8"/><rect x="256" y="288" width="8" height="8"/><rect x="264" y="288" width="8" height="8"/><rect x="272" y="288" width="8" height="8"/><rect x="280" y="288" width="8" height="8"/><rect x="288" y="288" width="8" height="8"/><rect x="296" y="288" width="8" height="8"/><rect x="304" y="288" width="8" height="8"/><rect x="32" y="296" width="8" height="8"/><rect x="48" y="296" width="8" height="8"/><rect x="56" y="296" width="8" height="8"/><rect x="64" y="296" width="8" height="8"/><rect x="80" y="296" width="8" height="8"/><rect x="96" y="296" width="8" height="8"/><rect x="120" y="296" width="8" height="8"/><rect x="136" y="296" width="8" height="8"/><rect x="144" y="296" width="8" height="8"/><rect x="152" y="296" width="8" height="8"/><rect x="160" y="296" width="8" height="8"/><rect x="184" y="296" width="8" height="8"/><rect x="192" y="296" width="8" height="8"/><rect x="200" y="296" width="8" height="8"/><rect x="208" y="296" width="8" height="8"/><rect x="216" y="296" width="8" height="8"/><rect x="240" y="296" width="8" height="8"/><rect x="248" y="296" width="8" height="8"/><rect x="272" y="296" width="8" height="8"/><rect x="288" y="296" width="8" height="8"/><rect x="296" y="296" width="8" height="8"/><rect x="304" y="296" width="8" height="8"/><rect x="32" y="304" width="8" height="8"/><rect x="48" y="304" width="8" height="8"/><rect x="56" y="304" width="8" height="8"/><rect x="64" y="304" width="8" height="8"/><rect x="80" y="304" width="8" height="8"/><rect x="96" y="304" width="8" height="8"/><rect x="128" y="304" width="8" height="8"/><rect x="152" y="304" width="8" height="8"/><rect x="160" y="304" width="8" height="8"/><rect x="168" y="304" width="8" height="8"/><rect x="176" y="304" width="8" height="8"/><rect x="192" y="304" width="8" height="8"/><rect x="200" y="304" width="8" height="8"/><rect x="208" y="304" width="8" height="8"/><rect x="248" y="304" width="8" height="8"/><rect x="256" y="304" width="8" height="8"/><rect x="280" y="304" width="8" height="8"/><rect x="296" y="304" width="8" height="8"/><rect x="312" y="304" width="8" height="8"/><rect x="320" y="304" width="8" height="8"/><rect x="32" y="312" width="8" height="8"/><rect x="80" y="312" width="8" height="8"/><rect x="96" y="312" width="8" height="8"/><rect x="112" y="312" width="8" height="8"/><rect x="120" y="312" width="8" height="8"/><rect x="144" y="312" width="8" height="8"/><rect x="152" y="312" width="8" height="8"/><rect x="160" y="312" width="8" height="8"/><rect x="176" y="312" width="8" height="8"/><rect x="192" y="312" width="8" height="8"/><rect x="200" y="312" width="8" height="8"/><rect x="216" y="312" width="8" height="8"/><rect x="248" y="312" width="8" height="8"/><rect x="256" y="312" width="8" height="8"/><rect x="264" y="312" width="8" height="8"/><rect x="288" y="312" width="8" height="8"/><rect x="320" y="312" width="8" height="8"/><rect x="32" y="320" width="8" height="8"/><rect x="40" y="320" width="8" height="8"/><rect x="48" y="320" width="8" height="8"/><rect x="56" y="320" width="8" height="8"/><rect x="64" y="320" width="8" height="8"/><rect x="72" y="320" width="8" height="8"/><rect x="80" y="320" width="8" height="8"/><rect x="96" y="320" width="8" height="8"/><rect x="104" y="320" width="8" height="8"/><rect x="128" y="320" width="8" height="8"/><rect x="136" y="320" width="8" height="8"/><rect x="168" y="320" width="8" height="8"/><rect x="208" y="320" width="8" height="8"/><rect x="216" y="320" width="8" height="8"/><rect x="224" y="320" width="8" height="8"/><rect x="232" y="320" width="8" height="8"/><rect x="264" y="320" width="8" height="8"/><rect x="272" y="320" width="8" height="8"/><rect x="296" y="320" width="8" height="8"/><rect x="304" y="320" width="8" height="8"/><rect x="312" y="320" width="8" height="8"/><rect x="320" y="320" width="8" height="8"/></g></svg>